<?xml version="1.0" encoding="UTF-8"?>
<svg id="Layer_1" xmlns="http://www.w3.org/2000/svg" version="1.1" viewBox="0 0 300 300">
  <!-- Generator: Adobe Illustrator 29.4.0, SVG Export Plug-In . SVG Version: 2.1.0 Build 152)  -->
  <path d="M161.8,282.6c-26.8,0-52.9-8.1-75.4-23.8-29.1-20.2-48.6-50.6-54.8-85.5l-1.1-5.9,11.7-2.1,1.1,5.9c5.7,31.7,23.4,59.3,49.9,77.7,26.5,18.4,58.5,25.4,90.2,19.7,65.5-11.8,109.2-74.6,97.5-140.1-5-27.8-19.8-53.4-41.6-72.2-16.1-13.9-36.6-23.2-57.7-26.3-9.7-1.4-42.6-4.3-58.9,16.9-19.1,24.9,11.7,59.6,18.1,66.3l4.1,4.3-8.7,8.2-4.1-4.3c-21.8-23-38.2-56.5-18.9-81.8,20.2-26.4,58.7-23.2,70-21.5,23.3,3.4,46,13.7,63.8,29.1,23.9,20.6,40.1,48.7,45.6,79.2,12.9,72-35.1,141.1-107.1,154-7.9,1.4-15.9,2.1-23.8,2.1" fill="#50a6d3"/>
  <path d="M207.1,95.7c-30-24.8-74.4-20.7-99.2,9.3-24.8,30-20.7,74.4,9.3,99.2,30,24.8,74.4,20.7,99.2-9.3,24.8-30,20.7-74.4-9.3-99.2ZM189,117.6c-7.7-6.4-16.9-9.7-26.8-9.7v-11.9c12.7,0,24.6,4.3,34.4,12.4,3.7,3,6.9,6.5,9.7,10.4l-9.7,6.9c-2.1-3-4.7-5.8-7.5-8.1ZM204.2,147.9c-.2-3.9-.9-7.8-2.2-11.5l11.3-3.8c1.6,4.8,2.6,9.7,2.8,14.8l-11.9.6Z" fill="#173358"/>
  <path d="M37.2,174.3c-2,0-3.9-.8-5.3-2.2l-22-22c-4-4-6.3-9.4-6.3-15.1,0-5.7,2.2-11,6.2-15.1,7.2-7.2,19.3-8.1,27.4-2.2,8.1-5.8,20.2-4.9,27.4,2.3,4,4,6.2,9.4,6.2,15.1,0,5.7-2.2,11-6.2,15l-23.9,23.8-3.6.5ZM34.2,163.6s0,0,0,0h0ZM24.9,125.6c-2.5,0-4.8,1-6.6,2.7-1.8,1.8-2.7,4.1-2.7,6.6s1,4.9,2.8,6.6l18.9,18.9,19-18.9c1.8-1.8,2.7-4.1,2.7-6.6,0-2.5-1-4.9-2.7-6.6-3.5-3.5-9.7-3.5-13.2,0l-5.7,5.7-5.8-5.7c-1.8-1.8-4.1-2.8-6.6-2.8" fill="#50a6d3"/>
</svg>